<mxfile host="app.diagrams.net" modified="2024-03-12T15:48:25.272Z" agent="Mozilla/5.0 (Windows NT 10.0; Win64; x64) AppleWebKit/537.36 (KHTML, like Gecko) Chrome/122.0.0.0 Safari/537.36" etag="-sm7fEmeqh_qqvYVN0vT" version="23.1.5" type="device">
  <diagram name="Seite-1" id="-cjpWWwhI0bBhD7-ehD0">
    <mxGraphModel dx="793" dy="1139" grid="1" gridSize="10" guides="1" tooltips="1" connect="1" arrows="1" fold="1" page="1" pageScale="1" pageWidth="827" pageHeight="1169" math="0" shadow="0">
      <root>
        <mxCell id="0" />
        <mxCell id="1" parent="0" />
        <mxCell id="uoEx0kVT-reLTgkMEngL-1" value="" style="rounded=0;whiteSpace=wrap;html=1;" vertex="1" parent="1">
          <mxGeometry x="40" y="40" width="230" height="130" as="geometry" />
        </mxCell>
        <mxCell id="uoEx0kVT-reLTgkMEngL-3" value="&lt;font style=&quot;font-size: 26px;&quot;&gt;PC #1&lt;/font&gt;" style="text;html=1;align=center;verticalAlign=middle;resizable=0;points=[];autosize=1;strokeColor=none;fillColor=none;" vertex="1" parent="1">
          <mxGeometry x="105" y="55" width="100" height="40" as="geometry" />
        </mxCell>
        <mxCell id="uoEx0kVT-reLTgkMEngL-4" value="" style="rounded=0;whiteSpace=wrap;html=1;" vertex="1" parent="1">
          <mxGeometry x="70" y="100" width="170" height="60" as="geometry" />
        </mxCell>
        <mxCell id="uoEx0kVT-reLTgkMEngL-5" value="&lt;font style=&quot;font-size: 16px;&quot;&gt;BROWSER&lt;/font&gt;" style="text;html=1;align=center;verticalAlign=middle;resizable=0;points=[];autosize=1;strokeColor=none;fillColor=none;" vertex="1" parent="1">
          <mxGeometry x="100" y="115" width="110" height="30" as="geometry" />
        </mxCell>
        <mxCell id="uoEx0kVT-reLTgkMEngL-6" value="" style="rounded=0;whiteSpace=wrap;html=1;" vertex="1" parent="1">
          <mxGeometry x="440" y="40" width="230" height="130" as="geometry" />
        </mxCell>
        <mxCell id="uoEx0kVT-reLTgkMEngL-7" value="&lt;font style=&quot;font-size: 26px;&quot;&gt;PC #2&lt;/font&gt;" style="text;html=1;align=center;verticalAlign=middle;resizable=0;points=[];autosize=1;strokeColor=none;fillColor=none;" vertex="1" parent="1">
          <mxGeometry x="505" y="55" width="100" height="40" as="geometry" />
        </mxCell>
        <mxCell id="uoEx0kVT-reLTgkMEngL-8" value="" style="rounded=0;whiteSpace=wrap;html=1;" vertex="1" parent="1">
          <mxGeometry x="470" y="100" width="170" height="60" as="geometry" />
        </mxCell>
        <mxCell id="uoEx0kVT-reLTgkMEngL-9" value="&lt;font style=&quot;font-size: 16px;&quot;&gt;BROWSER&lt;/font&gt;" style="text;html=1;align=center;verticalAlign=middle;resizable=0;points=[];autosize=1;strokeColor=none;fillColor=none;" vertex="1" parent="1">
          <mxGeometry x="500" y="115" width="110" height="30" as="geometry" />
        </mxCell>
        <mxCell id="uoEx0kVT-reLTgkMEngL-14" value="" style="rounded=0;whiteSpace=wrap;html=1;" vertex="1" parent="1">
          <mxGeometry x="240" y="340" width="230" height="130" as="geometry" />
        </mxCell>
        <mxCell id="uoEx0kVT-reLTgkMEngL-15" value="&lt;font style=&quot;font-size: 26px;&quot;&gt;HoloLens2&lt;/font&gt;" style="text;html=1;align=center;verticalAlign=middle;resizable=0;points=[];autosize=1;strokeColor=none;fillColor=none;" vertex="1" parent="1">
          <mxGeometry x="280" y="355" width="150" height="40" as="geometry" />
        </mxCell>
        <mxCell id="uoEx0kVT-reLTgkMEngL-16" value="" style="rounded=0;whiteSpace=wrap;html=1;" vertex="1" parent="1">
          <mxGeometry x="270" y="400" width="170" height="60" as="geometry" />
        </mxCell>
        <mxCell id="uoEx0kVT-reLTgkMEngL-17" value="&lt;span style=&quot;font-size: 16px;&quot;&gt;HTTP-listener&lt;/span&gt;" style="text;html=1;align=center;verticalAlign=middle;resizable=0;points=[];autosize=1;strokeColor=none;fillColor=none;" vertex="1" parent="1">
          <mxGeometry x="295" y="415" width="120" height="30" as="geometry" />
        </mxCell>
        <mxCell id="uoEx0kVT-reLTgkMEngL-19" value="" style="endArrow=classic;startArrow=classic;html=1;rounded=0;strokeWidth=2;exitX=0;exitY=0;exitDx=0;exitDy=0;entryX=0.5;entryY=1;entryDx=0;entryDy=0;" edge="1" parent="1" source="uoEx0kVT-reLTgkMEngL-16" target="uoEx0kVT-reLTgkMEngL-4">
          <mxGeometry width="50" height="50" relative="1" as="geometry">
            <mxPoint x="190" y="290" as="sourcePoint" />
            <mxPoint x="240" y="240" as="targetPoint" />
          </mxGeometry>
        </mxCell>
        <mxCell id="uoEx0kVT-reLTgkMEngL-20" value="" style="endArrow=classic;startArrow=classic;html=1;rounded=0;strokeWidth=2;exitX=1;exitY=0;exitDx=0;exitDy=0;entryX=0.5;entryY=1;entryDx=0;entryDy=0;" edge="1" parent="1" source="uoEx0kVT-reLTgkMEngL-16" target="uoEx0kVT-reLTgkMEngL-8">
          <mxGeometry width="50" height="50" relative="1" as="geometry">
            <mxPoint x="280" y="410" as="sourcePoint" />
            <mxPoint x="165" y="170" as="targetPoint" />
          </mxGeometry>
        </mxCell>
        <mxCell id="uoEx0kVT-reLTgkMEngL-21" value="&lt;font style=&quot;font-size: 16px;&quot;&gt;HTTP&lt;/font&gt;" style="text;html=1;align=center;verticalAlign=middle;resizable=0;points=[];autosize=1;strokeColor=none;fillColor=none;" vertex="1" parent="1">
          <mxGeometry x="495" y="268" width="70" height="30" as="geometry" />
        </mxCell>
        <mxCell id="uoEx0kVT-reLTgkMEngL-22" value="&lt;font style=&quot;font-size: 16px;&quot;&gt;HTTP&lt;/font&gt;" style="text;html=1;align=center;verticalAlign=middle;resizable=0;points=[];autosize=1;strokeColor=none;fillColor=none;" vertex="1" parent="1">
          <mxGeometry x="145" y="268" width="70" height="30" as="geometry" />
        </mxCell>
      </root>
    </mxGraphModel>
  </diagram>
</mxfile>
